HIERARCHY
ROOT SpineBase
{
  OFFSET 0.000000 0.000000 0.000000
  CHANNELS 6 Xposition Yposition Zposition Zrotation Xrotation Yrotation
  JOINT SpineMid
  {
    OFFSET 0.000000 29.096127 0.000000
    CHANNELS 3 Zrotation Xrotation Yrotation
    JOINT SpineShoulder
    {
      OFFSET -0.176486 21.576392 -0.780841
      CHANNELS 3 Zrotation Xrotation Yrotation
      JOINT Neck
      {
        OFFSET -0.103034 7.118423 -0.599634
        CHANNELS 3 Zrotation Xrotation Yrotation
        JOINT Head
        {
          OFFSET 3.080594 9.940239 -1.063041
          CHANNELS 3 Zrotation Xrotation Yrotation
          End Site
          {
            OFFSET 0 0 0
          }
        }
      }
      JOINT ShoulderLeft
      {
        OFFSET -14.871028 -2.986943 -6.838769
        CHANNELS 3 Zrotation Xrotation Yrotation
        JOINT ElbowLeft
        {
          OFFSET -1.668203 -20.453962 -5.811864
          CHANNELS 3 Zrotation Xrotation Yrotation
          JOINT WristLeft
          {
            OFFSET 9.434153 -17.941911 -4.725944
            CHANNELS 3 Zrotation Xrotation Yrotation
            JOINT HandLeft
            {
              OFFSET 1.861980 -2.817090 3.044157
              CHANNELS 3 Zrotation Xrotation Yrotation
              JOINT HandTipLeft
              {
                OFFSET 5.886361 -4.658503 -4.002831
                CHANNELS 3 Zrotation Xrotation Yrotation
                End Site
                {
                  OFFSET 0 0 0
                }
              }
              JOINT ThumbLeft
              {
                OFFSET -5.574945 -4.556314 -1.203090
                CHANNELS 3 Zrotation Xrotation Yrotation
                End Site
                {
                  OFFSET 0 0 0
                }
              }
            }
          }
        }
      }
      JOINT ShoulderRight
      {
        OFFSET 16.139908 -3.835494 2.976637
        CHANNELS 3 Zrotation Xrotation Yrotation
        JOINT ElbowRight
        {
          OFFSET -1.488385 -25.449420 -5.113731
          CHANNELS 3 Zrotation Xrotation Yrotation
          JOINT WristRight
          {
            OFFSET -4.284462 -18.914011 -12.198194
            CHANNELS 3 Zrotation Xrotation Yrotation
            JOINT HandRight
            {
              OFFSET -5.234937 -0.640928 -0.902723
              CHANNELS 3 Zrotation Xrotation Yrotation
              JOINT HandTipRight
              {
                OFFSET -3.684067 -1.380682 -1.596584
                CHANNELS 3 Zrotation Xrotation Yrotation
                End Site
                {
                  OFFSET 0 0 0
                }
              }
              JOINT ThumbRight
              {
                OFFSET 0.053597 -2.520584 -0.321635
                CHANNELS 3 Zrotation Xrotation Yrotation
                End Site
                {
                  OFFSET 0 0 0
                }
              }
            }
          }
        }
      }
    }
  }
  JOINT HipLeft
  {
    OFFSET -6.128791 1.219938 -6.135476
    CHANNELS 3 Zrotation Xrotation Yrotation
    JOINT KneeLeft
    {
      OFFSET -7.813878 -27.303576 -2.551267
      CHANNELS 3 Zrotation Xrotation Yrotation
      JOINT AnkleLeft
      {
        OFFSET -4.874874 -33.173954 1.460952
        CHANNELS 3 Zrotation Xrotation Yrotation
        JOINT FootLeft
        {
          OFFSET 2.238059 -4.727197 -12.277239
          CHANNELS 3 Zrotation Xrotation Yrotation
          End Site
          {
            OFFSET 0 0 0
          }
        }
      }
    }
  }
  JOINT HipRight
  {
    OFFSET 5.115996 -0.393141 -1.549006
    CHANNELS 3 Zrotation Xrotation Yrotation
    JOINT KneeRight
    {
      OFFSET 1.352208 -27.711405 6.060892
      CHANNELS 3 Zrotation Xrotation Yrotation
      JOINT AnkleRight
      {
        OFFSET 0.884438 -29.020989 7.995083
        CHANNELS 3 Zrotation Xrotation Yrotation
        JOINT FootRight
        {
          OFFSET 2.373617 -8.103993 -4.312917
          CHANNELS 3 Zrotation Xrotation Yrotation
          End Site
          {
            OFFSET 0 0 0
          }
        }
      }
    }
  }
}
MOTION
Frames: 5
Frame Time: 0.033333
51.079542 84.783781 420.624913 2.399463 -1.261604 -32.749675 -0.331413 -0.305078 32.841497 -0.027088 -0.101765 0.083655 -0.447928 2.733265 -0.414992 0.000000 0.000000 0.000000 -1.925063 1.445427 -0.117121 -22.229233 -8.705115 -0.421824 4.415487 26.344570 -7.034224 -19.100241 -39.710462 0.853313 0.000000 0.000000 0.000000 0.000000 0.000000 0.000000 6.242428 -6.400575 -0.968764 -12.316896 5.926793 5.157058 14.740670 -0.151618 -35.927855 -1.552704 -0.389460 20.605917 0.000000 0.000000 0.000000 0.000000 0.000000 0.000000 -3.955089 2.032098 32.034540 1.917025 -8.823278 1.964868 -5.090803 -18.623936 -12.580461 0.000000 0.000000 0.000000 -1.834835 -0.907783 32.808536 -1.150404 -2.770636 -0.367095 9.940946 4.254605 -4.972753 0.000000 0.000000 0.000000
51.160777 83.248845 420.123448 1.550671 -0.539090 -30.210802 -0.510718 -0.367801 30.248760 0.143864 -0.349143 0.050153 0.734502 2.687347 -0.473774 0.000000 0.000000 0.000000 -1.067039 0.950402 -0.067336 -24.407344 -10.243491 -1.268040 2.224476 35.314481 -2.145809 -29.685643 -48.283452 -12.569804 0.000000 0.000000 0.000000 0.000000 0.000000 0.000000 6.269206 -6.473137 -0.769465 -20.302826 9.084054 10.691884 27.800118 -8.992875 -33.354316 -12.370206 -1.257075 18.280052 0.000000 0.000000 0.000000 0.000000 0.000000 0.000000 -2.263696 4.312610 28.831383 -0.512511 -12.195777 2.703033 -3.944032 -13.869760 -8.112579 0.000000 0.000000 0.000000 -1.076229 -6.355187 29.419841 4.433934 3.758128 1.015096 9.243198 9.834039 -4.793008 0.000000 0.000000 0.000000
52.005243 80.096472 421.565179 0.498135 -1.047386 -25.711061 -0.751573 -0.245089 25.702679 0.166140 -0.246538 -0.010828 3.849031 3.917971 -0.594668 0.000000 0.000000 0.000000 -0.130631 4.074103 -0.126359 -26.126203 -14.063447 -3.106965 4.848214 36.014104 -1.287266 -37.893025 -48.052303 -16.214367 0.000000 0.000000 0.000000 0.000000 0.000000 0.000000 3.361004 -3.281186 -0.307900 -25.209401 10.642489 14.942198 52.488477 -21.933806 -15.154489 -30.340637 2.445953 4.892075 0.000000 0.000000 0.000000 0.000000 0.000000 0.000000 -2.674458 10.751320 22.833575 -1.971407 -21.320066 4.608849 -1.190728 -5.584349 -9.279770 0.000000 0.000000 0.000000 0.056178 -10.056904 24.488400 7.562843 10.745201 1.354293 5.038047 19.597673 -1.181272 0.000000 0.000000 0.000000
52.304543 73.929395 423.858172 -1.263076 -2.276938 -18.873751 -0.929442 -0.021820 18.775084 -0.085227 0.378398 -0.108505 9.151131 5.491418 -0.720810 0.000000 0.000000 0.000000 -6.282197 15.096553 2.626630 -21.053004 -23.756588 -9.083702 7.828195 37.769855 2.467741 -46.107288 -45.741852 -23.391663 0.000000 0.000000 0.000000 0.000000 0.000000 0.000000 -1.745061 2.420973 1.067698 -26.108933 11.569415 16.962512 75.551434 -28.505958 6.067441 -43.511738 8.195144 -4.420236 0.000000 0.000000 0.000000 0.000000 0.000000 0.000000 -0.395841 19.636145 13.834941 -4.247321 -30.197877 6.180307 5.056288 5.469499 -16.089875 0.000000 0.000000 0.000000 -6.346657 -11.528940 15.396729 15.930470 14.713585 2.166028 9.186808 16.330622 -4.852471 0.000000 0.000000 0.000000
53.250459 70.465404 427.401097 -3.101233 -3.710391 -16.428126 -0.961832 0.137797 16.197215 0.021432 0.216042 -0.199918 14.949070 8.196195 -1.251710 0.000000 0.000000 0.000000 -28.983939 35.248605 16.695386 -7.157089 -44.085647 -18.281021 10.230290 40.688941 9.640995 -53.023595 -40.848995 -32.723914 0.000000 0.000000 0.000000 0.000000 0.000000 0.000000 -10.112877 10.729724 4.260250 -20.004559 8.958292 15.134568 89.375747 -30.401372 15.538587 -46.330243 8.691462 -8.843658 0.000000 0.000000 0.000000 0.000000 0.000000 0.000000 2.427034 28.397415 8.803379 -10.025289 -35.152484 4.979547 25.725452 21.006847 -37.701678 0.000000 0.000000 0.000000 -19.339797 -7.068224 10.265251 29.703891 12.024894 4.966190 11.451338 20.317658 -6.216060 0.000000 0.000000 0.000000
